<svg width="30" height="30" viewBox="0 0 30 30" fill="none" xmlns="http://www.w3.org/2000/svg">
<path d="M6.83746 11.25C9.25371 11.25 11.2125 9.29125 11.2125 6.875C11.2125 4.45875 9.25371 2.5 6.83746 2.5C4.42122 2.5 2.46246 4.45875 2.46246 6.875C2.46246 9.29125 4.42122 11.25 6.83746 11.25Z" stroke="#292D32" stroke-width="1.5"/>
<path d="M21.2125 18.75H24.9625C26.3375 18.75 27.4625 19.875 27.4625 21.25V25C27.4625 26.375 26.3375 27.5 24.9625 27.5H21.2125C19.8375 27.5 18.7125 26.375 18.7125 25V21.25C18.7125 19.875 19.8375 18.75 21.2125 18.75Z" stroke="#292D32" stroke-width="1.5"/>
<path d="M15.0001 6.25H18.3501C20.6626 6.25 21.7376 9.1125 20.0001 10.6375L10.0126 19.375C8.27505 20.8875 9.35005 23.75 11.6501 23.75H15.0001" stroke="#292D32" stroke-width="1.5" stroke-linecap="round" stroke-linejoin="round"/>
<path d="M6.85777 6.875H6.87221" stroke="#292D32" stroke-width="2" stroke-linecap="round" stroke-linejoin="round"/>
<path d="M23.1078 23.125H23.1222" stroke="#292D32" stroke-width="2" stroke-linecap="round" stroke-linejoin="round"/>
</svg>
